<svg width="1600" height="1000" viewBox="0 0 1600 1000" fill="none" xmlns="http://www.w3.org/2000/svg">
  <rect width="1600" height="1000" fill="#0F172A"/>
  <rect width="1600" height="1000" fill="url(#bg)"/>
  <circle cx="1290" cy="260" r="220" fill="#F59E0B" fill-opacity="0.18"/>
  <circle cx="340" cy="760" r="260" fill="#DC2626" fill-opacity="0.2"/>
  <path d="M740 240C740 189.026 780.026 149 831 149H900C950.974 149 991 189.026 991 240V356C991 403.095 954.095 440 907 440H824C777.817 440 740 402.183 740 356V240Z" fill="#F8FAFC" fill-opacity="0.95"/>
  <path d="M746 580H981V800C981 835.899 951.899 865 916 865H811C775.101 865 746 835.899 746 800V580Z" fill="#F8FAFC" fill-opacity="0.95"/>
  <rect x="794" y="320" width="120" height="120" rx="20" fill="#1E3A8A"/>
  <path d="M560 620C560 509.4 646.4 423 757 423H840C950.6 423 1037 509.4 1037 620V772C1037 839.346 983.346 893 916 893H681C613.654 893 560 839.346 560 772V620Z" fill="#F8FAFC" fill-opacity="0.92"/>
  <rect x="626" y="480" width="240" height="140" rx="26" fill="#0F172A"/>
  <path d="M756 214C756 183.072 780.072 159 811 159H837C867.928 159 892 183.072 892 214V280C892 310.928 867.928 335 837 335H811C780.072 335 756 310.928 756 280V214Z" fill="#DC2626"/>
  <path d="M687 240C687 198.026 718.026 167 760 167H785C826.974 167 858 198.026 858 240V356C858 397.974 826.974 429 785 429H760C718.026 429 687 397.974 687 356V240Z" fill="#E2E8F0" fill-opacity="0.88"/>
  <path d="M434 666C434 604.026 482.026 556 544 556H678C739.974 556 788 604.026 788 666V838C788 899.974 739.974 948 678 948H544C482.026 948 434 899.974 434 838V666Z" fill="#E2E8F0" fill-opacity="0.8"/>
  <path d="M281 756C281 684.026 335.026 630 407 630H468C539.974 630 594 684.026 594 756V862C594 933.974 539.974 988 468 988H407C335.026 988 281 933.974 281 862V756Z" fill="#F8FAFC" fill-opacity="0.75"/>
  <path d="M1184 590C1184 524.772 1232.77 476 1298 476H1371C1436.23 476 1485 524.772 1485 590V826C1485 891.228 1436.23 940 1371 940H1298C1232.77 940 1184 891.228 1184 826V590Z" fill="#F8FAFC" fill-opacity="0.8"/>
  <path d="M1250 422C1250 371.026 1288.03 333 1339 333H1400C1450.97 333 1489 371.026 1489 422V487C1489 537.974 1450.97 576 1400 576H1339C1288.03 576 1250 537.974 1250 487V422Z" fill="#1E3A8A"/>
  <defs>
    <linearGradient id="bg" x1="180" y1="120" x2="1440" y2="920" gradientUnits="userSpaceOnUse">
      <stop stop-color="#1D4ED8"/>
      <stop offset="1" stop-color="#0F172A"/>
    </linearGradient>
  </defs>
</svg>
